<?xml version="1.0" encoding="UTF-8" standalone="no"?>
<!DOCTYPE svg PUBLIC "-//W3C//DTD SVG 1.1//EN" "http://www.w3.org/Graphics/SVG/1.1/DTD/svg11.dtd">
<svg width="100%" height="100%" viewBox="0 0 1024 1024" xmlns="http://www.w3.org/2000/svg" xmlns:xlink="http://www.w3.org/1999/xlink" xml:space="preserve" xmlns:serif="http://www.serif.com/" >
	<circle cx="512" cy="545" r="458" style="fill:white;"/>
	<path d="M509,45C762.881,45 969,250.447 969,503.5C969,756.553 762.881,962 509,962C255.119,962 49,756.553 49,503.5C49,250.447 255.119,45 509,45ZM508.5,63.938C751.619,63.938 949,260.676 949,503.002C949,745.327 751.619,942.065 508.5,942.065C265.381,942.065 68,745.327 68,503.002C68,260.676 265.381,63.938 508.5,63.938Z" style="fill:rgb(246,246,246);"/>
    <path id="C1" d="M364.24,833.578C216.086,784.958 109,645.619 109,481.5C109,277.015 275.24,111 480,111C648.579,111 791.048,223.529 836.127,377.389C775.95,294.164 678.231,240 568,240C385.316,240 237,388.764 237,572C237,678.185 286.808,772.794 364.24,833.578Z" style="fill:rgb(231,127,68);"/>
    <path id="C2" d="M540.579,833.485C408.217,819.29 305,707.104 305,571C305,425.294 423.294,307 569,307C705.497,307 817.938,410.815 831.604,543.713C795.789,513.927 749.727,496 699.5,496C585.53,496 493,588.306 493,702C493,751.969 510.873,797.806 540.579,833.485Z" style="fill:rgb(224,57,60);"/>
    <ellipse cx="745.5" cy="725" rx="125.5" ry="88" style="fill:rgb(249,176,49);"/>
</svg>
